<?xml version="1.0" encoding="utf-8"?>
<svg xmlns="http://www.w3.org/2000/svg" style="margin: auto; background: rgb(241, 242, 243); display: block; shape-rendering: auto;" width="280" height="250" preserveAspectRatio="xMidYMid">
<style type="text/css">
  text {
    text-anchor: middle; font-size: 80px; opacity: 0;
  }
</style>
<g style="transform-origin:140px 125px;transform:scale(1)">
<g transform="translate(140,125)">
  <g transform="translate(0,0)"><g class="path" style="opacity: 1; transform-origin: -48.825px -7.81704px; animation: 1.66667s linear -0.88s infinite normal forwards running fade-1a0b9913-d921-4462-9555-26574bca3e86;"><path d="M21.88-21.02L21.88 0L6.37 0L6.37-56.25L34.02-56.25L34.02-56.25Q37.93-56.25 41.56-55.33L41.56-55.33L41.56-55.33Q45.20-54.41 47.99-52.44L47.99-52.44L47.99-52.44Q50.78-50.47 52.44-47.34L52.44-47.34L52.44-47.34Q54.10-44.22 54.10-39.77L54.10-39.77L54.10-39.77Q54.10-36.29 52.64-33.22L52.64-33.22L52.64-33.22Q51.17-30.16 48.73-27.75L48.73-27.75L48.73-27.75Q46.29-25.35 43.13-23.77L43.13-23.77L43.13-23.77Q39.96-22.19 36.56-21.68L36.56-21.68L36.56-21.68Q38.09-19.10 39.75-16.80L39.75-16.80L39.75-16.80Q41.41-14.49 43.11-12.48L43.11-12.48L43.11-12.48Q44.80-10.47 46.48-8.77L46.48-8.77L46.48-8.77Q48.16-7.07 49.69-5.66L49.69-5.66L49.69-5.66Q53.28-2.38 56.80 0L56.80 0L37.46 0L37.46 0Q35.12-2.23 33.01-5.35L33.01-5.35L33.01-5.35Q31.21-8.01 29.39-11.93L29.39-11.93L29.39-11.93Q27.58-15.86 26.60-21.02L26.60-21.02L21.88-21.02zM38.36-39.77L38.36-39.77L38.36-39.77Q38.36-45.43 35.61-48.09L35.61-48.09L35.61-48.09Q32.85-50.74 27.34-50.74L27.34-50.74L21.88-50.74L21.88-26.33L27.34-26.33L27.34-26.33Q30.27-26.33 32.36-27.44L32.36-27.44L32.36-27.44Q34.45-28.55 35.78-30.41L35.78-30.41L35.78-30.41Q37.11-32.27 37.73-34.69L37.73-34.69L37.73-34.69Q38.36-37.11 38.36-39.77" fill="#17232d" stroke="none" stroke-width="none" transform="translate(-80.4100227355957,20.307959205627444)" style="fill: rgb(23, 35, 45);"></path></g><g class="path" style="opacity: 1; transform-origin: -10.86px -35.687px; animation: 1.66667s linear -0.66s infinite normal forwards running fade-1a0b9913-d921-4462-9555-26574bca3e86;"><path d="M76.76-56.02L76.76-56.02L76.76-56.02Q76.76-54.53 76.19-53.20L76.19-53.20L76.19-53.20Q75.63-51.88 74.65-50.90L74.65-50.90L74.65-50.90Q73.67-49.92 72.34-49.36L72.34-49.36L72.34-49.36Q71.02-48.79 69.53-48.79L69.53-48.79L69.53-48.79Q68.05-48.79 66.74-49.36L66.74-49.36L66.74-49.36Q65.43-49.92 64.45-50.90L64.45-50.90L64.45-50.90Q63.48-51.88 62.91-53.20L62.91-53.20L62.91-53.20Q62.34-54.53 62.34-56.02L62.34-56.02L62.34-56.02Q62.34-57.50 62.91-58.81L62.91-58.81L62.91-58.81Q63.48-60.12 64.45-61.09L64.45-61.09L64.45-61.09Q65.43-62.07 66.74-62.64L66.74-62.64L66.74-62.64Q68.05-63.20 69.53-63.20L69.53-63.20L69.53-63.20Q71.02-63.20 72.34-62.64L72.34-62.64L72.34-62.64Q73.67-62.07 74.65-61.09L74.65-61.09L74.65-61.09Q75.63-60.12 76.19-58.81L76.19-58.81L76.19-58.81Q76.76-57.50 76.76-56.02" fill="#17232d" stroke="none" stroke-width="none" transform="translate(-80.4100227355957,20.307959205627444)" style="fill: rgb(52, 63, 82);"></path></g><g class="path" style="opacity: 1; transform-origin: -10.86px -2.23204px; animation: 1.66667s linear -0.44s infinite normal forwards running fade-1a0b9913-d921-4462-9555-26574bca3e86;"><path d="M76.17-45.08L76.17 0L62.93 0L62.93-45.08L76.17-45.08" fill="#17232d" stroke="none" stroke-width="none" transform="translate(-80.4100227355957,20.307959205627444)" style="fill: rgb(89, 93, 122);"></path></g><g class="path" style="opacity: 1; transform-origin: 23.46px -2.25204px; animation: 1.66667s linear -0.22s infinite normal forwards running fade-1a0b9913-d921-4462-9555-26574bca3e86;"><path d="M122.97-5.23L122.97 0L84.77 0L84.77-5.23L84.77-5.23L108.40-39.88L84.77-39.88L84.77-45.12L122.97-45.12L122.97-39.88L99.34-5.23L122.97-5.23" fill="#17232d" stroke="none" stroke-width="none" transform="translate(-80.4100227355957,20.307959205627444)" style="fill: rgb(134, 122, 162);"></path></g><g class="path" style="opacity: 1; transform-origin: 67.675px -2.25204px; animation: 1.66667s linear 0s infinite normal forwards running fade-1a0b9913-d921-4462-9555-26574bca3e86;"><path d="M167.19-5.23L167.19 0L128.98 0L128.98-5.23L128.98-5.23L152.62-39.88L128.98-39.88L128.98-45.12L167.19-45.12L167.19-39.88L143.55-5.23L167.19-5.23" fill="#17232d" stroke="none" stroke-width="none" transform="translate(-80.4100227355957,20.307959205627444)" style="fill: rgb(255, 255, 255);"></path></g></g>
</g>
</g>
<style id="fade-1a0b9913-d921-4462-9555-26574bca3e86" data-anikit="">@keyframes fade-1a0b9913-d921-4462-9555-26574bca3e86
{
  0% {
    animation-timing-function: cubic-bezier(0.2057,0.573,0.3723,0.9184);
    opacity: 1;
  }
  100% {
    opacity: 0;
  }
}</style></svg>